<svg xmlns="http://www.w3.org/2000/svg" viewBox="0 0 500 500">
  <path d="M112 300c-29 0-52-23-52-52s23-52 52-52 52 23 52 52-23 52-52 52Zm0-76c-13 0-24 11-24 24s11 24 24 24 24-11 24-24-11-24-24-24Zm276 76c-29 0-52-23-52-52s23-52 52-52 52 23 52 52-23 52-52 52Zm0-76c-13 0-24 11-24 24s11 24 24 24 24-11 24-24-11-24-24-24Z" fill="#2f2f2f"/>
  <path d="M157 236h126c8 0 14 6 14 14s-6 14-14 14H157c-8 0-14-6-14-14s6-14 14-14Zm160-30 24-42c4-7 13-9 19-5 7 4 9 13 5 19l-31 55c-4 7-13 9-19 5-7-4-9-12-5-19l7-13Z" fill="#2f2f2f"/>
  <path d="M216 344h68l-25 66 95-99h-67l23-64-94 97Z" fill="#2f2f2f"/>
  <path d="M72 248c0-22 18-40 40-40h276c22 0 40 18 40 40s-18 40-40 40H112c-22 0-40-18-40-40Z" fill="none" stroke="#2f2f2f" stroke-width="28" stroke-linecap="round" stroke-linejoin="round"/>
</svg>
