<svg xmlns="http://www.w3.org/2000/svg" viewBox="0 0 512 512">
  <g fill="#fff">
    <path d="M77.604 241.753 87.651 200.13c-21.697-9.842-38.879-39.91-38.879-65.383 0-40.4 32.761-73.162 73.162-73.162 31.978 0 59.097 20.563 69.049 49.153h28.136c4.574-7.435 17.672-17.408 15.484-22.67-2.766-6.681-27.566-1.566-31.546-7.515-4.003-5.979 10.172-26.951 5.1-32.022-5.078-5.078-26.05 9.104-32.029 5.093-5.941-3.973-.834-28.788-7.508-31.553-6.572-2.722-20.497 18.396-27.639 16.984-6.922-1.368-11.723-26.241-19.048-26.241s-12.126 24.873-19.048 26.241c-7.134 1.412-21.06-19.706-27.631-16.977-6.681 2.766-1.566 27.566-7.515 31.546-5.979 4.003-26.951-10.171-32.022-5.1-5.078 5.078 9.104 26.05 5.101 32.029-3.98 5.942-28.788.834-31.561 7.508-2.722 6.572 18.397 20.504 16.984 27.639C24.873 122.622 0 127.423 0 134.747s24.873 12.126 26.242 19.048c1.412 7.134-19.707 21.06-16.977 27.631 2.766 6.681 27.565 1.566 31.546 7.515 4.003 5.979-10.171 26.951-5.1 32.022 5.078 5.078 26.05-9.104 32.029-5.101 3.724 2.496 9.198 17.585 9.864 25.891z"/>
    <path d="M66.144 349.022H512l-52.453-217.304h-340.95L66.144 349.022zm407.79-29.973H367.579l-6.279-67.439h96.351l16.283 67.439zm-37.986-157.358 16.282 67.439h-93.022l-6.271-67.439h83.011zm-188.304 0h82.718l6.278 67.439h-95.275l6.279-67.439zm-8.372 89.919h99.46l6.271 67.439H233.001l6.271-67.439zm-97.068-89.919h82.865l-6.271 67.439h-92.876l16.282-67.439zm74.501 89.919-6.279 67.439H104.218L120.5 251.61h96.205z"/>
    <path d="M83.634 394.479h410.877L512 359.508H66.144l17.49 34.971z"/>
    <path d="M311.702 408.668h-45.253l-2.429 39.603-45.662 22.626v28.29h141.436v-28.29l-45.663-22.626-2.429-39.603z"/>
  </g>
</svg>
